<svg xmlns="http://www.w3.org/2000/svg" xmlns:xlink="http://www.w3.org/1999/xlink" width="1593.64" height="259.802" viewBox="0 0 1593.64 259.802">
  <defs>
    <clipPath id="clip-path">
      <rect id="Rectangle_35" data-name="Rectangle 35" width="1444.677" height="259.802" fill="none"/>
    </clipPath>
  </defs>
  <g id="Group_37468" data-name="Group 37468" transform="translate(-40 -37)">
    <g id="Group_37287" data-name="Group 37287" transform="translate(40 37)">
      <g id="Group_2675" data-name="Group 2675">
        <g id="Group_2670" data-name="Group 2670">
          <g id="Group_2669" data-name="Group 2669" clip-path="url(#clip-path)">
            <path id="Path_27556" data-name="Path 27556" d="M-43.346,451.5a117.455,117.455,0,0,1,5.719-35.84,96.241,96.241,0,0,1,17.649-32.366,86.151,86.151,0,0,1,70.628-30.3,86.16,86.16,0,0,1,70.638,30.3,104.44,104.44,0,0,1,23.369,67.685,103.131,103.131,0,0,1-23.369,67.695,85.512,85.512,0,0,1-70.638,30.81,85.491,85.491,0,0,1-70.628-30.811A101.094,101.094,0,0,1-43.346,451.5Zm32.287,0a107.021,107.021,0,0,0,3.288,25.357A67.675,67.675,0,0,0,3.913,501.7,53.727,53.727,0,0,0,50.65,526.1,51.512,51.512,0,0,0,97.4,501.7a92.952,92.952,0,0,0,14.45-50.734A85.423,85.423,0,0,0,97.4,401.2,52.053,52.053,0,0,0,50.65,376.354,53.47,53.47,0,0,0,3.913,401.2a82.784,82.784,0,0,0-14.982,50.291Zm187.57,0a117.451,117.451,0,0,1,5.719-35.84,96.322,96.322,0,0,1,17.659-32.376,86.181,86.181,0,0,1,70.638-30.3,86.151,86.151,0,0,1,70.628,30.3,104.43,104.43,0,0,1,23.369,67.685,103.121,103.121,0,0,1-23.369,67.695,85.492,85.492,0,0,1-70.628,30.81,85.52,85.52,0,0,1-70.638-30.81A101.092,101.092,0,0,1,176.52,451.49Zm32.3,0a106.863,106.863,0,0,0,3.288,25.357A67.706,67.706,0,0,0,223.779,501.7a53.746,53.746,0,0,0,46.747,24.4,51.513,51.513,0,0,0,46.737-24.4,92.952,92.952,0,0,0,14.45-50.734,85.422,85.422,0,0,0-14.45-49.769,52.044,52.044,0,0,0-46.737-24.845A53.49,53.49,0,0,0,223.779,401.2a82.775,82.775,0,0,0-14.972,50.291ZM596.32,529.047,544.149,385.8,491.358,529.047a21.006,21.006,0,0,1-21.124,16.459,19.42,19.42,0,0,1-20.2-15.9L392.814,376.885a19.217,19.217,0,0,1-.984-5.71,18.7,18.7,0,0,1,.984-5.719,6.035,6.035,0,0,1,3.554-3.937,29.692,29.692,0,0,1,9.43-5.021,13.082,13.082,0,0,1,14.372,11l51.187,145.242,52.8-140.311a21.656,21.656,0,0,1,20.888-15.967,25.342,25.342,0,0,1,12.9,3.455,21.951,21.951,0,0,1,9.007,12.462l49.769,138.8,50.724-143.717a13.21,13.21,0,0,1,12.9-11,13.9,13.9,0,0,1,10.208,4.243,12.432,12.432,0,0,1,4.243,8.741,45.359,45.359,0,0,1-.522,7.442L635.606,529.608a19.146,19.146,0,0,1-18.87,15.927,19.687,19.687,0,0,1-20.425-16.449Zm139.257,2.53V370.929a12.8,12.8,0,0,1,4.922-10.474,16.066,16.066,0,0,1,9.952-3.937,12.668,12.668,0,0,1,13.417,7.963,56.384,56.384,0,0,1,1.545,23.89A53.785,53.785,0,0,1,791.3,362.484a72.057,72.057,0,0,1,34.531-9.441,87.46,87.46,0,0,1,29.088,4.243,65.518,65.518,0,0,1,21.892,13.161,73.237,73.237,0,0,1,19.9,55.745V531.577a11.734,11.734,0,0,1-5.188,10.484,19.43,19.43,0,0,1-10.73,3.455,15.935,15.935,0,0,1-10.474-3.721,12.647,12.647,0,0,1-4.38-10.217V424.144a47.338,47.338,0,0,0-12.984-35.831,40.516,40.516,0,0,0-29.856-11.95A62.161,62.161,0,0,0,782.345,390.3a57.91,57.91,0,0,0-16.9,45.792v95.483a11.88,11.88,0,0,1-5.02,10.483,18.611,18.611,0,0,1-10.907,3.455,14.028,14.028,0,0,1-9.952-3.721,13.329,13.329,0,0,1-3.937-10.217Zm387.513-86.033q0,10.464-11.94,11.429H974.827q1.969,50.724,39.817,65.7a75.62,75.62,0,0,0,23.89,3.455,98.349,98.349,0,0,0,56.689-20.425,11.389,11.389,0,0,1,14.893.985,5.543,5.543,0,0,1,1.969,5.975,12.609,12.609,0,0,1-3.455,9.952,95.837,95.837,0,0,1-72.1,26.833,85.985,85.985,0,0,1-65.7-26.4,96.465,96.465,0,0,1-27.867-72.1A101.113,101.113,0,0,1,965.9,382.831a81.465,81.465,0,0,1,67.6-29.866q43.8,0,66.651,26.313a98.091,98.091,0,0,1,22.936,66.217ZM975.86,436.537h117.9a69.183,69.183,0,0,0-17.482-44.227,55.7,55.7,0,0,0-42.761-15.927A53.962,53.962,0,0,0,992.752,394.3a69.448,69.448,0,0,0-16.872,42.238Zm362.067,9.007q0,10.464-11.95,11.429H1189.752q1.969,50.724,39.729,65.7a76.192,76.192,0,0,0,23.89,3.455,98.123,98.123,0,0,0,56.7-20.425,11.5,11.5,0,0,1,14.972.984,5.749,5.749,0,0,1,1.969,5.976,12.61,12.61,0,0,1-3.465,9.951,96.093,96.093,0,0,1-72.183,26.834,85.865,85.865,0,0,1-65.608-26.4,96.465,96.465,0,0,1-27.877-72.1,101.33,101.33,0,0,1,22.857-68.108,81.7,81.7,0,0,1,67.685-29.866q43.716,0,66.641,26.313a97.777,97.777,0,0,1,22.857,66.218ZM1190.7,436.537h117.9a68.845,68.845,0,0,0-17.4-44.247,55.684,55.684,0,0,0-42.751-15.927,54.229,54.229,0,0,0-40.851,17.916,69.4,69.4,0,0,0-16.872,42.239Zm0,0" transform="translate(81.372 -327.677)" fill="#1dc7da" stroke="#1dc7da" stroke-width="1"/>
          </g>
        </g>
      </g>
    </g>
    <g id="Group_37466" data-name="Group 37466" transform="translate(1505.425 92.675)">
      <path id="Path_27611" data-name="Path 27611" d="M2309.059,42.656h37.219V178.5h-37.407Z" transform="translate(-2308.871 -42.656)" fill="#6d8bc3"/>
      <path id="Path_27612" data-name="Path 27612" d="M2309.059,42.656h37.219V178.5h-37.407Z" transform="translate(-2263.345 -42.656)" fill="#92a8d2"/>
      <path id="Path_27613" data-name="Path 27613" d="M2309.059,42.656h37.219V178.5h-37.407Z" transform="translate(-2218.063 -42.656)" fill="#b5c4e0"/>
    </g>
  </g>
</svg>
