<svg xmlns="http://www.w3.org/2000/svg" width="20.038" height="20.04" viewBox="845.981 5669.981 20.038 20.04"><g data-name="vuesax/linear/buildings-2"><g data-name="buildings-2"><path d="M850.7 5686h-2.55a1.9 1.9 0 0 1-2.15-2.15v-11.7a1.9 1.9 0 0 1 2.15-2.15h4.3a1.9 1.9 0 0 1 2.15 2.15v1.85" stroke-linejoin="round" stroke-linecap="round" stroke-width="1.5" stroke="gray" fill="transparent" data-name="Vector"/><path d="M861.37 5676.42v11.16a2.135 2.135 0 0 1-2.41 2.42h-5.84a2.142 2.142 0 0 1-2.42-2.42v-11.16a2.142 2.142 0 0 1 2.42-2.42h5.84a2.135 2.135 0 0 1 2.41 2.42Z" stroke-linejoin="round" stroke-linecap="round" stroke-width="1.5" stroke="gray" fill="transparent" data-name="Vector"/><path d="M857.4 5674v-1.85a1.9 1.9 0 0 1 2.15-2.15h4.3a1.9 1.9 0 0 1 2.15 2.15v11.7a1.9 1.9 0 0 1-2.15 2.15h-2.48M854 5679h4M854 5682h4M856 5690v-3" stroke-linejoin="round" stroke-linecap="round" stroke-width="1.5" stroke="gray" fill="transparent" data-name="Vector"/></g></g></svg>