<svg xmlns="http://www.w3.org/2000/svg" width="9" height="20.935" viewBox="851 5632 9 20.935"><g data-name="Groupe 38128"><g data-name="crown-1-svgrepo-com"><path d="M858.87 5632.68v3.253c0 .937-.76 1.697-1.697 1.697h-3.395c-.156 0-.306-.02-.452-.061a.288.288 0 0 1-.122-.482l3.609-3.61c.075-.074.187-.09.292-.07.109.02.227-.01.312-.092l.873-.876c.319-.32.58-.214.58.241Z" fill="#292d32" fill-rule="evenodd" data-name="Tracé 27678"/><path d="m856.371 5633.24-3.554 3.555a.34.34 0 0 1-.543-.082c-.126-.23-.194-.499-.194-.78v-3.253c0-.455.261-.56.58-.24l.877.878c.132.13.35.13.482 0l1.215-1.218a.342.342 0 0 1 .482 0l.659.658a.345.345 0 0 1-.004.482Z" fill="#292d32" fill-rule="evenodd" data-name="Tracé 27679"/></g><g data-name="Groupe 38127"><path d="M855.497 5645.716a1.2 1.2 0 0 0-.218 0 2.916 2.916 0 0 1-2.817-2.923 2.927 2.927 0 0 1 2.93-2.93 2.927 2.927 0 0 1 .106 5.853ZM852.198 5648.15c-1.597 1.07-1.597 2.812 0 3.874 1.814 1.214 4.79 1.214 6.604 0 1.597-1.069 1.597-2.81 0-3.873-1.807-1.208-4.783-1.208-6.604 0Z" stroke-linejoin="round" stroke-linecap="round" stroke-width="1.2" stroke="gray" fill="transparent" data-name="Vector"/></g></g></svg>