<svg xmlns="http://www.w3.org/2000/svg" width="41.93" height="41.931" viewBox="401.202 114.193 41.93 41.931"><g data-name="vuesax/linear/building"><g data-name="building"><path d="M423.278 156.123h-17.653c-2.432 0-4.423-1.95-4.423-4.34v-31.112c0-5.492 4.088-7.987 9.098-5.534l9.309 4.57c2.012.985 3.669 3.606 3.669 5.828v30.588Z" stroke-linejoin="round" stroke-linecap="round" stroke-width="3" stroke="#000" fill="transparent" data-name="Vector"/><path d="M443.131 141.573v7.925c0 4.529-2.096 6.625-6.624 6.625h-13.23v-24.277l.986.21 9.434 2.117 4.256.943c2.767.608 5.032 2.034 5.157 6.06.021.125.021.25.021.397ZM408.602 128.869h7.275M408.602 137.255h7.275" stroke-linejoin="round" stroke-linecap="round" stroke-width="3" stroke="#000" fill="transparent" data-name="Vector"/></g></g></svg>